<svg xmlns="http://www.w3.org/2000/svg" xmlns:xlink="http://www.w3.org/1999/xlink" width="1024" zoomAndPan="magnify" viewBox="0 0 768 767.999994" height="1024" preserveAspectRatio="xMidYMid meet" version="1.0"><defs><clipPath id="ccad54d592"><path d="M 250.242188 230.398438 L 517.992188 230.398438 L 517.992188 537.898438 L 250.242188 537.898438 Z M 250.242188 230.398438 " clip-rule="nonzero"/></clipPath></defs><g clip-path="url(#ccad54d592)"><path fill="#05a3c9" d="M 349.722656 247.808594 C 331.40625 257.347656 316.421875 265.421875 316.421875 265.75 C 316.429688 266.597656 360.382812 288.859375 361.941406 288.804688 C 362.652344 288.78125 367.800781 286.410156 373.378906 283.539062 L 383.53125 278.320312 L 394.613281 284.015625 L 405.699219 289.714844 L 423.851562 281.558594 C 451.203125 269.265625 454.042969 267.921875 453.597656 267.46875 C 453.007812 266.867188 443.199219 261.597656 416.582031 247.582031 C 403.71875 240.808594 391.230469 234.167969 388.835938 232.824219 C 386.4375 231.480469 384.148438 230.398438 383.75 230.421875 C 383.351562 230.441406 368.035156 238.265625 349.722656 247.808594 Z M 269.386719 289.410156 L 250.320312 299.257812 L 250.320312 342.484375 C 250.320312 366.261719 250.570312 385.710938 250.878906 385.710938 C 251.183594 385.710938 260.566406 381.644531 271.722656 376.675781 L 292.011719 367.636719 L 292.011719 322.074219 L 301.925781 327.476562 C 309.566406 331.632812 317.210938 335.785156 324.863281 339.925781 L 337.878906 346.976562 L 343.671875 344.355469 C 347.308594 342.710938 350.933594 341.050781 354.550781 339.371094 C 357.347656 338.070312 364.210938 334.976562 369.804688 332.5 C 375.398438 330.019531 380.574219 327.527344 381.308594 326.960938 C 382.285156 326.203125 370.390625 319.632812 337.324219 302.652344 C 312.402344 289.851562 291.207031 279.417969 290.230469 279.46875 C 289.253906 279.519531 279.875 283.992188 269.386719 289.410156 Z M 457.035156 292.175781 C 444.050781 298.039062 433.414062 303.070312 433.402344 303.355469 C 433.390625 303.640625 440.46875 307.851562 449.132812 312.707031 C 457.792969 317.5625 464.882812 321.796875 464.882812 322.117188 C 464.882812 322.433594 457.21875 326.148438 447.851562 330.371094 C 438.480469 334.59375 414.800781 345.289062 395.226562 354.136719 L 329.636719 383.789062 C 313.140625 391.246094 298.265625 397.96875 296.589844 398.730469 C 262.890625 413.984375 253.625 418.21875 252.355469 418.945312 C 251.074219 419.675781 250.785156 423.929688 250.558594 445.261719 L 250.285156 470.703125 L 267.335938 479.394531 L 284.386719 488.082031 L 308.027344 477.410156 C 321.03125 471.542969 331.671875 466.433594 331.671875 466.054688 C 331.671875 465.679688 329.269531 464.117188 326.332031 462.574219 C 323.394531 461.035156 317.332031 457.625 312.859375 455 C 308.386719 452.371094 303.925781 449.960938 302.945312 449.640625 C 301.964844 449.320312 301.179688 448.761719 301.195312 448.398438 C 301.210938 448.035156 311.621094 443.089844 324.328125 437.40625 C 349.007812 426.371094 367.898438 417.867188 408.445312 399.527344 C 426.582031 391.328125 444.71875 383.132812 462.847656 374.949219 C 478.789062 367.753906 497.320312 359.347656 504.03125 356.273438 L 516.234375 350.683594 L 516.507812 324.949219 L 516.777344 299.214844 L 499.484375 290.339844 C 489.972656 285.457031 481.84375 281.476562 481.417969 281.488281 C 480.992188 281.503906 470.019531 286.3125 457.035156 292.175781 Z M 511.601562 385.011719 C 509.054688 386.257812 504.019531 388.585938 500.417969 390.191406 C 496.8125 391.792969 489.972656 394.878906 485.21875 397.050781 L 476.578125 400.992188 L 476.378906 423.582031 C 476.269531 436.007812 475.8125 446.121094 475.363281 446.054688 C 474.339844 445.902344 458.140625 437.59375 441.855469 428.867188 C 430.101562 422.570312 429.363281 422.320312 426.601562 423.6875 C 425.003906 424.476562 415.460938 428.757812 405.394531 433.199219 C 395.328125 437.640625 386.761719 441.566406 386.359375 441.921875 C 385.957031 442.277344 406.21875 453.257812 431.386719 466.328125 L 477.144531 490.089844 L 496.6875 479.976562 C 507.4375 474.417969 516.578125 469.34375 517 468.707031 C 517.949219 467.273438 517.867188 382.550781 516.917969 382.667969 C 516.542969 382.710938 514.148438 383.765625 511.601562 385.011719 Z M 403.359375 484.453125 C 399.972656 485.910156 396.582031 487.371094 393.191406 488.832031 C 382.960938 493.257812 384.964844 493.40625 372.789062 487.34375 C 364.683594 483.308594 361.1875 482.0625 359.671875 482.667969 C 358.53125 483.121094 348.738281 487.527344 337.90625 492.460938 C 327.070312 497.390625 317.832031 501.425781 317.371094 501.425781 C 312.828125 501.425781 320.382812 505.941406 349.542969 520.652344 L 383.738281 537.898438 L 398.125 530.796875 C 406.039062 526.890625 422 519.066406 433.59375 513.410156 C 445.1875 507.753906 454.53125 502.980469 454.359375 502.796875 C 454.179688 502.621094 444.464844 497.628906 432.765625 491.710938 L 411.496094 480.953125 Z M 403.359375 484.453125 " fill-opacity="1" fill-rule="evenodd"/></g></svg>